<svg xmlns="http://www.w3.org/2000/svg" xmlns:xlink="http://www.w3.org/1999/xlink" width="185.833" height="47.565" viewBox="0 0 185.833 47.565">
  <defs>
    <clipPath id="clip-path">
      <rect id="Rectangle_242" data-name="Rectangle 242" width="185.832" height="47.565" fill="none"/>
    </clipPath>
  </defs>
  <g id="Group_12676" data-name="Group 12676" transform="translate(0 0)">
    <g id="Group_12675" data-name="Group 12675" transform="translate(0 0)" clip-path="url(#clip-path)">
      <path id="Path_12492" data-name="Path 12492" d="M0,0H8.141l3.141,12.182L14.41,0H25.061a7.11,7.11,0,0,0-3.073,1.162A6.333,6.333,0,0,0,19.64,4.49a10.571,10.571,0,0,0-.284,1.5l5.32.006a3.993,3.993,0,0,1,.818-2.171,2.176,2.176,0,0,1,1.57-.58c.076,0,.151,0,.221.006V7.431a2.9,2.9,0,0,1-.719.088c-.336,0-.654.027-.992.036l0,3.8a7.46,7.46,0,0,1,1.707-.32v5.819a2.381,2.381,0,0,1-1.608-.633,3.861,3.861,0,0,1-1-2.182l-5.589.013c.013.048.158.7.174.746a8.386,8.386,0,0,0,1.49,2.913A6.4,6.4,0,0,0,23.3,19.55a8.241,8.241,0,0,0,1.875.473H17.469V4.755L13.548,20.023H8.974L5.068,4.755V20.023H0Z" transform="translate(0 0.001)" fill="#5a3" fill-rule="evenodd"/>
      <path id="Path_12493" data-name="Path 12493" d="M16.481,0H27.05l3.143,12.182L33.321,0h8.112V20.025H36.381V4.755l-3.923,15.27H27.885L23.977,4.755v15.27h-7.3a7.8,7.8,0,0,0,2.314-.7A6.045,6.045,0,0,0,21.583,16.9a6.6,6.6,0,0,0,.9-3.29,4.807,4.807,0,0,0-.544-2.354,4.271,4.271,0,0,0-1.52-1.593,6.285,6.285,0,0,0-1.745-.654,5.906,5.906,0,0,0,2.106-1.814,4.032,4.032,0,0,0,.7-2.308A4.511,4.511,0,0,0,19.756,1.28,6.539,6.539,0,0,0,16.481,0M14.305,16.849l.113,0a2.373,2.373,0,0,0,1.833-.8,3.088,3.088,0,0,0,.731-2.148,3.006,3.006,0,0,0-.7-2.119,2.5,2.5,0,0,0-1.913-.751h-.059Zm0-9.418V3.246a1.9,1.9,0,0,1,1.253.528,1.946,1.946,0,0,1,.536,1.438,2.164,2.164,0,0,1-.715,1.619,2.385,2.385,0,0,1-1.074.6" transform="translate(12.98 0.001)" fill="#004b99" fill-rule="evenodd"/>
      <path id="Path_12494" data-name="Path 12494" d="M0,12.937H5.85a12.39,12.39,0,0,1,2.605.265,6.445,6.445,0,0,1,2.2.891,4.568,4.568,0,0,1,1.532,1.671,5.312,5.312,0,0,1,.572,2.577,5.286,5.286,0,0,1-.614,2.676,4.771,4.771,0,0,1-1.574,1.671,6.467,6.467,0,0,1-2.1.864A10.214,10.214,0,0,1,6.3,23.8H2.34v8.86H0Zm2.34,8.692H6.3a4.772,4.772,0,0,0,2.855-.793,2.837,2.837,0,0,0,1.1-2.466,2.837,2.837,0,0,0-1.1-2.466A4.772,4.772,0,0,0,6.3,15.109H2.34Z" transform="translate(0 11.739)" fill="#050605"/>
      <path id="Path_12495" data-name="Path 12495" d="M15.075,12.938h2.2l8.385,19.724H22.931l-2.007-4.848H11.064L9.028,32.662H6.383Zm1.059,3.008h-.055l-4.1,9.7h8.051Z" transform="translate(5.792 11.74)" fill="#050605"/>
      <path id="Path_12496" data-name="Path 12496" d="M17.863,12.937h5.043a24.1,24.1,0,0,1,2.827.166,7.652,7.652,0,0,1,2.522.725,4.569,4.569,0,0,1,1.812,1.631,5.3,5.3,0,0,1,.7,2.911,4.8,4.8,0,0,1-1.31,3.51,6.241,6.241,0,0,1-3.622,1.7l5.6,9.083H28.561l-5.35-8.86H20.2v8.86h-2.34Zm2.34,8.692h2.089q.976,0,2.02-.055a6.952,6.952,0,0,0,1.923-.362,3.344,3.344,0,0,0,1.45-.961,2.781,2.781,0,0,0,.57-1.881,3.071,3.071,0,0,0-.418-1.7,2.8,2.8,0,0,0-1.1-.988,4.678,4.678,0,0,0-1.532-.46,13.156,13.156,0,0,0-1.713-.113H20.2Z" transform="translate(16.208 11.739)" fill="#050605"/>
      <path id="Path_12497" data-name="Path 12497" d="M34.282,12.938h2.2l8.385,19.724H42.138l-2.007-4.848H30.271l-2.035,4.848H25.59Zm1.059,3.008h-.055l-4.1,9.7h8.051Z" transform="translate(23.219 11.74)" fill="#050605"/>
      <path id="Path_12498" data-name="Path 12498" d="M54.385,31.562a13.867,13.867,0,0,1-3.58,1.392A16.412,16.412,0,0,1,47,33.4a11.524,11.524,0,0,1-4.234-.751,9.889,9.889,0,0,1-3.328-2.117,9.525,9.525,0,0,1-2.188-3.275,11.038,11.038,0,0,1-.78-4.221,10.644,10.644,0,0,1,.822-4.248,9.573,9.573,0,0,1,2.27-3.26,10.525,10.525,0,0,1,3.372-2.1,11.285,11.285,0,0,1,4.15-.751,12,12,0,0,1,3.748.586,8.032,8.032,0,0,1,3.218,2L52.3,17.1a6.733,6.733,0,0,0-2.439-1.671,7.693,7.693,0,0,0-2.937-.586,7.973,7.973,0,0,0-3.149.614,7.738,7.738,0,0,0-2.522,1.7,7.652,7.652,0,0,0-1.671,2.59,9.243,9.243,0,0,0,0,6.546A7.813,7.813,0,0,0,41.249,28.9a7.483,7.483,0,0,0,2.577,1.713,8.679,8.679,0,0,0,3.315.614,11.425,11.425,0,0,0,2.508-.294,9.963,9.963,0,0,0,2.4-.849V24.04H47.5V21.867h6.882Z" transform="translate(33.092 11.5)" fill="#050605"/>
      <path id="Path_12499" data-name="Path 12499" d="M58.143,33.4a10.678,10.678,0,0,1-4.137-.78,9.929,9.929,0,0,1-3.26-2.159A9.7,9.7,0,0,1,48.6,27.176a11.571,11.571,0,0,1,0-8.274,9.71,9.71,0,0,1,2.146-3.288,9.959,9.959,0,0,1,3.26-2.159,11.36,11.36,0,0,1,8.274,0,9.958,9.958,0,0,1,3.26,2.159A9.71,9.71,0,0,1,67.686,18.9a11.571,11.571,0,0,1,0,8.274,9.7,9.7,0,0,1-2.146,3.286,9.928,9.928,0,0,1-3.26,2.159,10.678,10.678,0,0,1-4.137.78m0-2.172a7.669,7.669,0,0,0,3.162-.641,7.475,7.475,0,0,0,2.464-1.755,7.966,7.966,0,0,0,1.6-2.605,9.178,9.178,0,0,0,0-6.38,7.977,7.977,0,0,0-1.6-2.6,7.48,7.48,0,0,0-2.464-1.757,8.123,8.123,0,0,0-6.325,0,7.48,7.48,0,0,0-2.464,1.757,7.977,7.977,0,0,0-1.6,2.6,9.178,9.178,0,0,0,0,6.38,7.966,7.966,0,0,0,1.6,2.605,7.475,7.475,0,0,0,2.464,1.755,7.669,7.669,0,0,0,3.162.641" transform="translate(43.404 11.5)" fill="#050605"/>
      <path id="Path_12500" data-name="Path 12500" d="M55.939,26.9a5.577,5.577,0,0,0,2.3-.465,5.407,5.407,0,0,0,1.793-1.278A5.816,5.816,0,0,0,61.2,23.264a6.687,6.687,0,0,0,0-4.642,5.816,5.816,0,0,0-1.165-1.894,5.407,5.407,0,0,0-1.793-1.278,5.917,5.917,0,0,0-4.6,0,5.407,5.407,0,0,0-1.793,1.278,5.784,5.784,0,0,0-1.165,1.894,6.687,6.687,0,0,0,0,4.642,5.784,5.784,0,0,0,1.165,1.894,5.407,5.407,0,0,0,1.793,1.278,5.577,5.577,0,0,0,2.3.465" transform="translate(45.608 13.596)" fill="#050605"/>
      <path id="Path_12501" data-name="Path 12501" d="M60.616,12.937h2.953L74.991,29.319h.055V12.937h2.34V32.661H74.435L63.011,16.281h-.055v16.38h-2.34Z" transform="translate(54.999 11.739)" fill="#050605"/>
      <path id="Path_12502" data-name="Path 12502" d="M106.593,37.332H70.727L85.793,11.278h35.866Z" transform="translate(64.174 10.233)" fill="#050605"/>
      <path id="Path_12503" data-name="Path 12503" d="M87.925,15.909H81.188l-.069,4.452a3.415,3.415,0,0,1,1.038-.315,7.792,7.792,0,0,1,1.083-.082,5.516,5.516,0,0,1,2.155.408,4.921,4.921,0,0,1,1.667,1.142,5.06,5.06,0,0,1,1.072,1.724,6.094,6.094,0,0,1,.374,2.157,5.675,5.675,0,0,1-.433,2.249,5,5,0,0,1-1.188,1.724,5.41,5.41,0,0,1-1.795,1.108,6.269,6.269,0,0,1-2.249.395,5.164,5.164,0,0,1-3.042-.814,5.7,5.7,0,0,1-1.829-2.192l1.957-.746a3.633,3.633,0,0,0,1.225,1.5,3.116,3.116,0,0,0,1.854.572,3.558,3.558,0,0,0,1.387-.269,3.282,3.282,0,0,0,1.118-.769,3.684,3.684,0,0,0,.757-1.2,4.155,4.155,0,0,0,.28-1.56,3.892,3.892,0,0,0-.315-1.61,3.394,3.394,0,0,0-.862-1.177,3.728,3.728,0,0,0-1.293-.723,5.167,5.167,0,0,0-1.61-.244,5.5,5.5,0,0,0-1.724.292,8.14,8.14,0,0,0-1.631.734l.162-8.577h8.648Z" transform="translate(70.747 12.786)" fill="#fff"/>
      <path id="Path_12504" data-name="Path 12504" d="M94.848,15.909l-6.6,14.685H86.038L92.75,15.909H84.779V14.091H94.848Z" transform="translate(76.924 12.786)" fill="#fff"/>
    </g>
  </g>
</svg>
