<svg xmlns="http://www.w3.org/2000/svg" xmlns:xlink="http://www.w3.org/1999/xlink" width="146.135" height="47.565" viewBox="0 0 146.135 47.565">
  <defs>
    <clipPath id="clip-path">
      <rect id="Rectangle_243" data-name="Rectangle 243" width="146.135" height="47.565" fill="none"/>
    </clipPath>
  </defs>
  <g id="Group_12678" data-name="Group 12678" transform="translate(0 0)">
    <g id="Group_12677" data-name="Group 12677" transform="translate(0 0)" clip-path="url(#clip-path)">
      <path id="Path_12505" data-name="Path 12505" d="M55.671,26.419c.151.007.3.011.448.011h-.448Z" transform="translate(44.447 21.092)" fill="#1a1818"/>
      <path id="Path_12506" data-name="Path 12506" d="M74.03,23.057a3.6,3.6,0,0,1-3.9,3.789c-2.408,0-3.9-1.419-3.9-3.708a3.892,3.892,0,0,1,3.9-3.874,3.606,3.606,0,0,1,3.9,3.793" transform="translate(52.875 15.38)" fill="#1a1818"/>
      <path id="Path_12507" data-name="Path 12507" d="M58.137,12.45c5.651.236,10.17,5.771,10.17,12.56,0,6.942-4.724,12.569-10.553,12.569h42.273V12.45ZM77.085,34.991c-4.318,0-6.793-2.485-6.793-6.821V24.13c0-5.992,2.2-8.783,6.929-8.783,3.516,0,5.589,1.744,6,5.046l.061.491h-2.75l-.059-.369c-.266-1.664-1.307-2.44-3.28-2.44-2.991,0-3.978,1.225-4.147,5.544a6.181,6.181,0,0,1,4.176-1.509c3.911,0,6.44,2.572,6.44,6.55a6.246,6.246,0,0,1-6.577,6.33m14.187,0c-3.25,0-5.442-1.4-6.291-3.965H88.19a3.489,3.489,0,0,0,3.082,1.262c2.376,0,3.793-1.325,3.793-3.545a3.272,3.272,0,0,0-3.519-3.465,4.451,4.451,0,0,0-3.994,2.3l-.111.259H84.688l1.647-12.22H96.867v2.728H88.681l-.725,5.325a7.938,7.938,0,0,1,3.944-.906c3.793,0,6.059,2.2,6.059,5.893,0,3.965-2.5,6.33-6.686,6.33" transform="translate(46.11 9.939)" fill="#1a1818"/>
      <path id="Path_12508" data-name="Path 12508" d="M25.121,12.446c-6.605,0-11.975,5.649-11.975,12.59,0,6.92,5.37,12.549,11.975,12.549A12.306,12.306,0,0,0,37.14,25.036c0-6.942-5.392-12.59-12.019-12.59m0,20.271c-3.886,0-6.931-3.374-6.931-7.681,0-4.377,2.98-7.679,6.931-7.679s6.931,3.3,6.931,7.679-2.98,7.681-6.931,7.681" transform="translate(10.496 9.936)" fill="#1a1818"/>
      <path id="Path_12509" data-name="Path 12509" d="M46.258,24.823c0,4.307-3.122,7.681-7.107,7.681-3.85,0-6.755-3.3-6.755-7.681V12.716H27.44V24.823c0,7.532,4.706,12.592,11.711,12.592a11.293,11.293,0,0,0,7.15-2.593v2.153h4.956V12.716h-5Z" transform="translate(21.908 10.152)" fill="#1a1818"/>
      <path id="Path_12510" data-name="Path 12510" d="M.932,41.46H0V7H.932Zm1.867,0H1.866V7H2.8Zm1.867,0H3.732V7h.933Zm1.865,0H5.6V7h.933ZM19.076,27.226,25.815,41.46h-.986L15.084,21.013A4.028,4.028,0,0,0,17.157,17.8a3.346,3.346,0,0,0-1.27-2.6,4.477,4.477,0,0,0-3.032-1.1H8.4v8.593h.518L17.78,41.46h-.986L8.4,23.79V41.46H7.464V7h5.392a13.378,13.378,0,0,1,8.967,3.174A9.682,9.682,0,0,1,25.554,17.8a9.506,9.506,0,0,1-2.644,6.566,10.712,10.712,0,0,1-3.834,2.865m-.363-.7q5.908-3,5.909-8.726A8.977,8.977,0,0,0,21.2,10.7a12.438,12.438,0,0,0-8.344-2.91H8.4v.793h4.458a11.421,11.421,0,0,1,7.645,2.71,8.265,8.265,0,0,1,3.189,6.5q0,5.2-5.287,7.933Zm-.727-1.5q4.769-2.687,4.769-7.228a7.529,7.529,0,0,0-2.93-5.949,10.462,10.462,0,0,0-6.971-2.467H8.4v.793h4.458a9.421,9.421,0,0,1,6.35,2.246A6.868,6.868,0,0,1,21.822,17.8q0,4.143-4.147,6.435Zm-.725-1.5q3.628-2.115,3.627-5.73a6.129,6.129,0,0,0-2.358-4.825,8.47,8.47,0,0,0-5.676-2.005H8.4v.793h4.458a7.452,7.452,0,0,1,5.028,1.784A5.445,5.445,0,0,1,19.957,17.8a5.6,5.6,0,0,1-3.007,4.937Zm-.674-1.543A4.808,4.808,0,0,0,19.024,17.8a4.709,4.709,0,0,0-1.815-3.7,6.5,6.5,0,0,0-4.354-1.543H8.4v.793h4.458a5.53,5.53,0,0,1,3.706,1.3A4,4,0,0,1,18.091,17.8a3.61,3.61,0,0,1-1.867,3.394Zm-5.805.529L19.8,41.46h-.986L9.849,22.644c.241-.029.552-.074.933-.133m1.865-.484L21.822,41.46H20.787L11.715,22.335q.361-.132.932-.308m1.608-.662,9.589,20.1H22.808L13.426,21.718a1.7,1.7,0,0,0,.829-.352" transform="translate(-0.001 5.587)" fill="#1a1818"/>
      <path id="Path_12511" data-name="Path 12511" d="M46.723,8.728l-4.937,0c-.007,0-.005,20.059-.005,21.841,0,0-.942,10.961,12.8,9.594V35.205H51.107s-5.116-.192-4.37-6.228a49.663,49.663,0,0,0,.129-5.717,2.346,2.346,0,0,0-.124-.957c-.423-.986-1.924-1.03-2.48-1.946q4.524-.221,9.051.005-.011-2.225-.023-4.447l-6.541-.027-.027-7.161" transform="translate(33.346 6.965)" fill="#1a1818"/>
      <path id="Path_12512" data-name="Path 12512" d="M73.242,25.037v1.707H60.179v-4.69H67.6a6.689,6.689,0,0,0-6.372-4.7,6.867,6.867,0,0,0-1.045.081c-3.419.525-5.884,3.617-5.884,7.6,0,3.913,2.512,7.055,5.884,7.595a6.595,6.595,0,0,0,5.784-1.9l.05-.058a.161.161,0,0,0,.027-.032A6.453,6.453,0,0,0,67.067,29.1l.273-.566h5.424l-.455,1.327c-.016.043-.029.083-.045.122a11.055,11.055,0,0,1-1.374,2.654c-.058.083-.117.162-.176.243a.044.044,0,0,1-.018.025,11.78,11.78,0,0,1-9.472,4.681q-.529,0-1.045-.05a12.343,12.343,0,0,1-10.929-12.5A12.375,12.375,0,0,1,60.179,12.5q.515-.051,1.045-.05A12.215,12.215,0,0,1,73.071,22.922a13.01,13.01,0,0,1,.171,2.115" transform="translate(39.32 9.935)" fill="#1a1818"/>
      <path id="Path_12513" data-name="Path 12513" d="M56.546,12.456h-.867c.146-.007.288-.011.433-.011s.288,0,.433.011" transform="translate(44.453 9.935)" fill="#1a1818"/>
      <path id="Path_12514" data-name="Path 12514" d="M0,0H3.864L5.353,5.778,6.839,0h5.05a3.382,3.382,0,0,0-1.457.55A3.009,3.009,0,0,0,9.319,2.129a5.039,5.039,0,0,0-.135.71l2.523,0A1.879,1.879,0,0,1,12.1,1.813a1.03,1.03,0,0,1,.745-.277c.036,0,.07,0,.1,0V3.525a1.379,1.379,0,0,1-.342.041c-.158,0-.309.013-.469.018l0,1.8a3.568,3.568,0,0,1,.809-.153V7.992a1.135,1.135,0,0,1-.763-.3,1.83,1.83,0,0,1-.475-1.034l-2.651.005c.007.022.076.331.083.354A3.955,3.955,0,0,0,9.846,8.4a3.019,3.019,0,0,0,1.209.874,3.823,3.823,0,0,0,.89.225H8.288V2.255L6.429,9.5H4.26L2.407,2.255V9.5H0Z" transform="translate(0.002 -0.001)" fill="#54a434" fill-rule="evenodd"/>
      <path id="Path_12515" data-name="Path 12515" d="M8.231,0h5.012l1.491,5.778L16.218,0h3.849V9.5h-2.4V2.255L15.81,9.5H13.639L11.787,2.255V9.5H8.325a3.659,3.659,0,0,0,1.1-.331,2.875,2.875,0,0,0,1.23-1.151,3.126,3.126,0,0,0,.424-1.561,2.276,2.276,0,0,0-.257-1.115,2.031,2.031,0,0,0-.721-.755,2.926,2.926,0,0,0-.827-.311,2.823,2.823,0,0,0,1-.86,1.917,1.917,0,0,0,.331-1.1A2.138,2.138,0,0,0,9.785.608,3.107,3.107,0,0,0,8.231,0M7.2,7.992l.054,0a1.127,1.127,0,0,0,.869-.381,1.466,1.466,0,0,0,.347-1.02,1.417,1.417,0,0,0-.334-1,1.186,1.186,0,0,0-.908-.358H7.2Zm0-4.467V1.539a.9.9,0,0,1,.6.252.923.923,0,0,1,.254.682,1.024,1.024,0,0,1-.34.768,1.137,1.137,0,0,1-.509.284" transform="translate(5.748 -0.001)" fill="#004b96" fill-rule="evenodd"/>
    </g>
  </g>
</svg>
