<svg id="Group_12674" data-name="Group 12674" xmlns="http://www.w3.org/2000/svg" xmlns:xlink="http://www.w3.org/1999/xlink" width="120.765" height="65.574" viewBox="0 0 120.765 65.574">
  <defs>
    <clipPath id="clip-path">
      <rect id="Rectangle_241" data-name="Rectangle 241" width="120.765" height="65.574" fill="none"/>
    </clipPath>
  </defs>
  <g id="Group_12673" data-name="Group 12673" transform="translate(0 0)" clip-path="url(#clip-path)">
    <path id="Path_12456" data-name="Path 12456" d="M13.448,39.465a.951.951,0,0,1,.2.64.966.966,0,0,1-.349.8,1.6,1.6,0,0,1-1.016.279c-.259,0-.493-.005-.7-.017L11.6,40l-.017-2.673.844-.007a1.032,1.032,0,0,1,.722.235.867.867,0,0,1,.255.673,1.122,1.122,0,0,1-.139.582.852.852,0,0,1-.394.349.946.946,0,0,1,.58.3m-.36,1.241a.741.741,0,0,0,.275-.619.7.7,0,0,0-.2-.529.956.956,0,0,0-.576-.234l-.722.005-.006.654.011.92c.145.012.291.017.438.017a1.236,1.236,0,0,0,.78-.215m-.161-2.947a.743.743,0,0,0-.53-.172h-.521l-.011,1.466.665.012a.7.7,0,0,0,.43-.267.893.893,0,0,0,.148-.538.661.661,0,0,0-.181-.5" transform="translate(2.558 12.015)" fill="#050605"/>
    <path id="Path_12457" data-name="Path 12457" d="M18.126,37.79a2.224,2.224,0,0,1,.383,1.4,2.409,2.409,0,0,1-.405,1.5,1.371,1.371,0,0,1-1.154.522,1.287,1.287,0,0,1-1.088-.5,2.87,2.87,0,0,1,.02-2.9,1.37,1.37,0,0,1,1.145-.514,1.312,1.312,0,0,1,1.1.49m-2.041.2a2.09,2.09,0,0,0-.316,1.256,2.209,2.209,0,0,0,.305,1.278,1.026,1.026,0,0,0,.9.434,1.072,1.072,0,0,0,.927-.439,2.192,2.192,0,0,0,.316-1.286,2.128,2.128,0,0,0-.305-1.249,1.04,1.04,0,0,0-.9-.42,1.083,1.083,0,0,0-.927.427" transform="translate(3.419 12.008)" fill="#050605"/>
    <path id="Path_12458" data-name="Path 12458" d="M22.879,39.286v.463a1.512,1.512,0,0,1-.327,1.069,1.231,1.231,0,0,1-.966.378,1.18,1.18,0,0,1-.934-.366,1.524,1.524,0,0,1-.32-1.058V37.328h.283L20.6,39.742a1.3,1.3,0,0,0,.25.878.927.927,0,0,0,.748.3.944.944,0,0,0,.752-.295,1.24,1.24,0,0,0,.251-.853L22.6,37.328h.289Z" transform="translate(4.49 12.017)" fill="#050605"/>
    <path id="Path_12459" data-name="Path 12459" d="M27.12,37.364l-.028.241-.593-.019h-.432l-.017,2.4.011,1.183h-.288L25.788,40l-.016-2.415h-.433l-.6.019-.022-.037.028-.239h2.351Z" transform="translate(5.458 12.017)" fill="#050605"/>
    <path id="Path_12460" data-name="Path 12460" d="M29.347,39.983l.011,1.183H29.07L29.086,40l-.016-2.673h.294Z" transform="translate(6.42 12.017)" fill="#050605"/>
    <path id="Path_12461" data-name="Path 12461" d="M35.508,42.094a.848.848,0,0,1-.128.2l-.033.005a3.986,3.986,0,0,1-1.071-.393,4.492,4.492,0,0,1-.966-.7,1.113,1.113,0,0,1-.138.007,1.3,1.3,0,0,1-1.1-.5,2.87,2.87,0,0,1,.02-2.9,1.369,1.369,0,0,1,1.145-.513,1.311,1.311,0,0,1,1.1.489A2.247,2.247,0,0,1,34.72,39.2a2.623,2.623,0,0,1-.291,1.321,1.3,1.3,0,0,1-.835.642,4.068,4.068,0,0,0,.9.568,4,4,0,0,0,1.007.315Zm-3.221-1.577a1.037,1.037,0,0,0,.9.43,1.065,1.065,0,0,0,.918-.442,2.181,2.181,0,0,0,.32-1.289,2.047,2.047,0,0,0-.309-1.228,1.048,1.048,0,0,0-.9-.418,1.073,1.073,0,0,0-.923.427,2.109,2.109,0,0,0-.314,1.261,2.152,2.152,0,0,0,.308,1.258" transform="translate(6.999 12.008)" fill="#050605"/>
    <path id="Path_12462" data-name="Path 12462" d="M39.1,39.286v.463a1.512,1.512,0,0,1-.327,1.069,1.231,1.231,0,0,1-.966.378,1.18,1.18,0,0,1-.934-.366,1.524,1.524,0,0,1-.32-1.058V37.328h.283l-.011,2.414a1.3,1.3,0,0,0,.25.878.927.927,0,0,0,.748.3.944.944,0,0,0,.752-.295,1.24,1.24,0,0,0,.251-.853l-.011-2.444h.289Z" transform="translate(8.074 12.017)" fill="#050605"/>
    <path id="Path_12463" data-name="Path 12463" d="M43.181,40.92l-.028.246H41.283L41.3,40l-.017-2.673h1.864l.022.036-.033.246L42.31,37.6l-.733.007-.011,1.447.693.005.593-.005.022.03-.028.246-1.281-.007-.006.661.011.913.717.005.87-.017Z" transform="translate(9.118 12.017)" fill="#050605"/>
    <path id="Path_12464" data-name="Path 12464" d="M49.514,40.932l-.033.234H47.822L47.839,40l-.017-2.673h.294L48.1,39.983l.011.913h1.376Z" transform="translate(10.562 12.017)" fill="#050605"/>
    <path id="Path_12465" data-name="Path 12465" d="M53.976,39.286v.463a1.512,1.512,0,0,1-.327,1.069,1.231,1.231,0,0,1-.966.378,1.18,1.18,0,0,1-.934-.366,1.524,1.524,0,0,1-.32-1.058V37.328h.283L51.7,39.742a1.306,1.306,0,0,0,.249.878.932.932,0,0,0,.75.3.946.946,0,0,0,.752-.295,1.24,1.24,0,0,0,.251-.853l-.011-2.444h.289Z" transform="translate(11.358 12.017)" fill="#050605"/>
    <path id="Path_12466" data-name="Path 12466" d="M57.457,39.172l1.248,1.993h-.354l-.145-.27-.943-1.478-.949,1.5-.133.251h-.322L57.1,39.2l-1.182-1.874h.36l.133.258.872,1.376L58.14,37.6l.138-.271h.327Z" transform="translate(12.337 12.016)" fill="#050605"/>
    <path id="Path_12467" data-name="Path 12467" d="M63.073,39.286v.463a1.512,1.512,0,0,1-.327,1.069,1.231,1.231,0,0,1-.966.378,1.18,1.18,0,0,1-.934-.366,1.524,1.524,0,0,1-.32-1.058V37.328h.283L60.8,39.742a1.306,1.306,0,0,0,.249.878.932.932,0,0,0,.75.3.946.946,0,0,0,.752-.295,1.24,1.24,0,0,0,.251-.853l-.011-2.444h.289Z" transform="translate(13.367 12.017)" fill="#050605"/>
    <path id="Path_12468" data-name="Path 12468" d="M67.431,41.094v.042a.876.876,0,0,1-.25.078l-.044-.024q-.538-.835-.91-1.525h-.7v.319l.012,1.183h-.289L65.268,40l-.017-2.673.944-.005a1.044,1.044,0,0,1,.776.276,1.094,1.094,0,0,1,.272.8,1.316,1.316,0,0,1-.2.73,1.215,1.215,0,0,1-.571.465q.416.728.96,1.5m-1.9-1.705.722.012a.94.94,0,0,0,.515-.352,1.062,1.062,0,0,0,.178-.633.84.84,0,0,0-.2-.609.819.819,0,0,0-.585-.219l-.617.012Z" transform="translate(14.411 12.015)" fill="#050605"/>
    <path id="Path_12469" data-name="Path 12469" d="M70.406,40.019l.011,1.147h-.288l.011-1.147-.006-.27-1.12-2.422h.321l.067.186.866,1.863H70.3l.942-1.856.072-.193h.316l-1.22,2.409Z" transform="translate(15.242 12.016)" fill="#050605"/>
    <path id="Path_12470" data-name="Path 12470" d="M78.3,41.094v.042a.876.876,0,0,1-.25.078l-.044-.024q-.538-.835-.91-1.525h-.7v.319l.012,1.183h-.289L76.141,40l-.017-2.673.944-.005a1.044,1.044,0,0,1,.776.276,1.094,1.094,0,0,1,.272.8,1.316,1.316,0,0,1-.2.73,1.215,1.215,0,0,1-.571.465q.416.728.96,1.5m-1.9-1.705.722.012a.94.94,0,0,0,.515-.352,1.062,1.062,0,0,0,.178-.633.84.84,0,0,0-.2-.609.819.819,0,0,0-.585-.219l-.617.012Z" transform="translate(16.812 12.015)" fill="#050605"/>
    <path id="Path_12471" data-name="Path 12471" d="M82.284,40.92l-.028.246H80.387L80.4,40l-.017-2.673h1.864l.022.036-.033.246-.827-.012-.733.007-.011,1.447.693.005.593-.005.022.03-.028.246-1.281-.007-.006.661.011.913.715.005.872-.017Z" transform="translate(17.754 12.017)" fill="#050605"/>
    <path id="Path_12472" data-name="Path 12472" d="M86.4,37.364l-.028.241-.593-.019h-.432l-.017,2.4.011,1.183H85.05L85.067,40l-.017-2.415h-.433l-.6.019-.022-.037.028-.239h2.351Z" transform="translate(18.55 12.017)" fill="#050605"/>
    <path id="Path_12473" data-name="Path 12473" d="M90.616,41.166h-.3l-.077-.324-.266-.829L89.129,40l-.759.012-.289.817L88,41.166h-.3l1.353-3.838h.328Zm-.733-1.429-.66-2.048H89.19l-.722,2.048.693.007Z" transform="translate(19.369 12.017)" fill="#050605"/>
    <path id="Path_12474" data-name="Path 12474" d="M92.755,39.983l.011,1.183h-.288L92.495,40l-.017-2.673h.294Z" transform="translate(20.424 12.017)" fill="#050605"/>
    <path id="Path_12475" data-name="Path 12475" d="M97.137,40.932l-.033.234H95.444L95.461,40l-.017-2.673h.294l-.017,2.654.011.913h1.376Z" transform="translate(21.079 12.017)" fill="#050605"/>
    <path id="Path_12476" data-name="Path 12476" d="M53.406,40.708l2.965-34.64L65.452,15.9Z" transform="translate(11.795 1.954)" fill="#c69a58"/>
    <path id="Path_12477" data-name="Path 12477" d="M53.406,35.449l31.989-3.218-9.081-9.826Z" transform="translate(11.795 7.213)" fill="#c69a58"/>
    <path id="Path_12478" data-name="Path 12478" d="M67.1,14.858l-13.443,22.6-.187.316-.063.108,21.1-15Z" transform="translate(11.795 4.783)" fill="#c69a58"/>
    <path id="Path_12479" data-name="Path 12479" d="M76.842,14.676l-19.8-9.809L66.12,14.7Z" transform="translate(12.598 1.567)" fill="#c69a58"/>
    <path id="Path_12480" data-name="Path 12480" d="M73.263,12.287,73.246,23.9l9.078,9.83Z" transform="translate(16.177 3.955)" fill="#c69a58"/>
    <path id="Path_12481" data-name="Path 12481" d="M74.874,12.287h0l-8.917,1.971,7.412,8.025Z" transform="translate(14.567 3.955)" fill="#c69a58"/>
    <path id="Path_12482" data-name="Path 12482" d="M2.551,53.483V17.04H5.817V48.712Z" transform="translate(0.563 5.485)" fill="#050605"/>
    <path id="Path_12483" data-name="Path 12483" d="M14.147,36.289V17.04H24.913v3.219H17.528V24.97h5.507v3.186H17.528V33.07h7.793v3.219Z" transform="translate(3.125 5.486)" fill="#050605"/>
    <path id="Path_12484" data-name="Path 12484" d="M44.595,31.036l4.976-14h3.6l-7.2,19.247H43.75l-2.284-6.134L39.18,36.288H36.958l-7.2-19.247h3.6l4.976,14,1.627-4.508L36.4,17.041h3.285l1.785,5.252,1.784-5.252h3.285l-3.567,9.487Z" transform="translate(6.573 5.486)" fill="#050605"/>
    <path id="Path_12485" data-name="Path 12485" d="M85.638,36.289V17.04h3.381V33.1h9.076l-2.2,3.281Z" transform="translate(18.914 5.486)" fill="#050605"/>
    <path id="Path_12486" data-name="Path 12486" d="M2.551,0h5.9l2.276,9.556L12.991,0h7.716a4.938,4.938,0,0,0-2.227.911,4.978,4.978,0,0,0-1.7,2.612A8.541,8.541,0,0,0,16.574,4.7l3.853,0A3.3,3.3,0,0,1,21.02,3a1.509,1.509,0,0,1,1.138-.457,1.587,1.587,0,0,1,.16.007V5.828a1.944,1.944,0,0,1-.521.07c-.243,0-.474.02-.719.029l0,2.977a4.934,4.934,0,0,1,1.238-.251v4.565a1.655,1.655,0,0,1-1.165-.5,3.131,3.131,0,0,1-.726-1.712l-4.048.011c.01.037.115.549.126.586a6.791,6.791,0,0,0,1.079,2.283,4.661,4.661,0,0,0,1.848,1.448,5.552,5.552,0,0,0,1.358.371H15.206V3.73L12.365,15.707H9.052L6.222,3.73V15.707H2.551Z" transform="translate(0.563 0)" fill="#5a3" fill-rule="evenodd"/>
    <path id="Path_12487" data-name="Path 12487" d="M20.319,0h7.657l2.277,9.556L32.519,0H38.4V15.708H34.734V3.73L31.893,15.708H28.579L25.751,3.73V15.708H20.462a5.317,5.317,0,0,0,1.676-.549,4.56,4.56,0,0,0,1.878-1.9,5.511,5.511,0,0,0,.649-2.582,4.028,4.028,0,0,0-.394-1.847,3.231,3.231,0,0,0-1.1-1.249,4.316,4.316,0,0,0-1.264-.513,4.389,4.389,0,0,0,1.526-1.424,3.347,3.347,0,0,0,.505-1.808A3.662,3.662,0,0,0,22.692,1a4.537,4.537,0,0,0-2.373-1M18.743,13.218l.081,0a1.661,1.661,0,0,0,1.327-.632,2.544,2.544,0,0,0,.53-1.684,2.477,2.477,0,0,0-.509-1.662,1.748,1.748,0,0,0-1.386-.59h-.043Zm0-7.388V2.547a1.327,1.327,0,0,1,.907.415,1.592,1.592,0,0,1,.388,1.126,1.762,1.762,0,0,1-.519,1.272,1.7,1.7,0,0,1-.776.469" transform="translate(4.139 0)" fill="#004b99" fill-rule="evenodd"/>
    <path id="Path_12488" data-name="Path 12488" d="M98.388,28.2l-5.532,6.586v-1.24l5.649-6.21Z" transform="translate(20.508 8.801)" fill="#050605"/>
    <path id="Path_12489" data-name="Path 12489" d="M98.388,28.2l-5.532,6.586v-1.24l5.649-6.21Z" transform="translate(20.508 8.801)" fill="none" stroke="#050605" stroke-miterlimit="10" stroke-width="2"/>
    <path id="Path_12490" data-name="Path 12490" d="M1.232,48.01l5.69-8.228.106,1.235L1.189,48.754Z" transform="translate(0.263 12.807)" fill="#050605"/>
    <path id="Path_12491" data-name="Path 12491" d="M1.232,48.01l5.69-8.228.106,1.235L1.189,48.754Z" transform="translate(0.263 12.807)" fill="none" stroke="#050605" stroke-miterlimit="10" stroke-width="2"/>
  </g>
</svg>
